<svg xmlns="http://www.w3.org/2000/svg" viewBox="0 0 100 100" width="100" height="100">
  <defs>
    <linearGradient id="fav" x1="0" y1="0" x2="1" y2="1">
      <stop offset="0" stop-color="#ffb020"/>
      <stop offset="1" stop-color="#ff5c2c"/>
    </linearGradient>
  </defs>
  <!-- favicon: same torn-receipt Stub, print bolded for 16px legibility -->
  <path d="M24 18 l6.5 -6 6.5 6 l6.5 -6 6.5 6 l6.5 -6 6.5 6 l6.5 -6 6.5 6 L76 82 l-6.5 6 -6.5 -6 -6.5 6 -6.5 -6 -6.5 6 -6.5 -6 -6.5 6 Z" fill="url(#fav)"/>
  <text x="50" y="32" text-anchor="middle" dominant-baseline="central" font-family="'Arial Black','Helvetica Neue',system-ui,sans-serif" font-weight="900" font-style="italic" font-size="19" letter-spacing="-2" fill="#0a0c12">RR</text>
  <rect x="33" y="44" width="34" height="5" rx="2.5" fill="#0a0c12"/>
  <rect x="33" y="53" width="34" height="5" rx="2.5" fill="#0a0c12"/>
  <g fill="#0a0c12">
    <rect x="33" y="64" width="4" height="13"/><rect x="39" y="64" width="2" height="13"/>
    <rect x="44" y="64" width="4.5" height="13"/><rect x="51" y="64" width="2.5" height="13"/>
    <rect x="56" y="64" width="4" height="13"/><rect x="62" y="64" width="2.5" height="13"/>
  </g>
</svg>
